<?xml version="1.0" encoding="UTF-8"?><svg id="Layer_1" xmlns="http://www.w3.org/2000/svg" viewBox="0 0 598 500"><defs><style>.cls-1{fill:#fff;}.cls-2{fill:#4b545b;}.cls-3{fill:#4ea1e4;}.cls-4,.cls-5{fill:#52aef9;stroke:#4b545b;stroke-miterlimit:10;stroke-width:20px;}.cls-5{stroke-linecap:round;}</style></defs><path class="cls-4" d="M337.04,132.92h-61c-1.1,0-2-.9-2-2v-61c0-1.1,.9-2,2-2h61c1.1,0,2,.9,2,2v61c0,1.1-.9,2-2,2Zm2,62.78v-61c0-1.1-.9-2-2-2h-61c-1.1,0-2,.9-2,2v61c0,1.1,.9,2,2,2h61c1.1,0,2-.9,2-2Zm-64.89,0v-61c0-1.1-.9-2-2-2h-61c-1.1,0-2,.9-2,2v61c0,1.1,.9,2,2,2h61c1.1,0,2-.9,2-2Zm-65.78,0v-61c0-1.1-.9-2-2-2h-61c-1.1,0-2,.9-2,2v61c0,1.1,.9,2,2,2h61c1.1,0,2-.9,2-2Zm130.67,63.86v-58.5c0-1.79-1.46-3.25-3.25-3.25h-58.5c-1.79,0-3.25,1.46-3.25,3.25v58.5c0,1.79,1.46,3.25,3.25,3.25h58.5c1.79,0,3.25-1.46,3.25-3.25Zm65.56,1.25v-61c0-1.1-.9-2-2-2h-61c-1.1,0-2,.9-2,2v61c0,1.1,.9,2,2,2h61c1.1,0,2-.9,2-2Zm-130.44,0v-61c0-1.1-.9-2-2-2h-61c-1.1,0-2,.9-2,2v61c0,1.1,.9,2,2,2h61c1.1,0,2-.9,2-2Zm-65.78,0v-61c0-1.1-.9-2-2-2h-61c-1.1,0-2,.9-2,2v61c0,1.1,.9,2,2,2h61c1.1,0,2-.9,2-2Zm-65.44,0v-61c0-1.1-.9-2-2-2h-61c-1.1,0-2,.9-2,2v61c0,1.1,.9,2,2,2h61c1.1,0,2-.9,2-2Z"/><path class="cls-5" d="M63,263.23H421.96s11.91-.85,17.44-10.21c7.06-11.95,1.7-19.14,4.68-42.11,1.61-12.41,11.91-33.17,11.91-33.17,0,0,18.72,10.52,26.79,24.24,8.51,14.46,6.8,26.37,6.8,26.37,0,0,19.56-3.4,29.77-1.28s31.47,11.91,31.47,11.91c0,0-13.61,19.56-27.65,28.5-14.04,8.93-40.4,11.91-40.4,11.91,0,0-87.61,152.69-254.76,152.69-181.18,0-165.02-168.85-165.02-168.85Z"/><path class="cls-3" d="M442.8,277.01c-9.23,8.65-103.75,112.28-218.18,112.28-99.28,0-140.78-53.16-140.78-53.16,15.56,46.2,41.32,85.06,141.63,85.06,171.82,0,250.08-149.28,250.08-149.28,0,0,25.94-2.55,39.98-11.48,14.04-8.93,19.14-17.44,19.14-17.44,0,0-9.26-4.34-19.56-5.95-13.61-2.13-37,3.83-37,3.83,0,0-28.5,29.77-35.3,36.15Z"/><g><circle class="cls-2" cx="158.41" cy="335.13" r="21.69"/><circle class="cls-1" cx="167.2" cy="329.33" r="6.8"/></g></svg>