<?xml version="1.0" encoding="UTF-8"?><svg id="Layer_1" xmlns="http://www.w3.org/2000/svg" viewBox="0 0 490 500"><defs><style>.cls-1{fill:#fff;}.cls-2,.cls-3{fill:#2d69ea;}.cls-3{stroke:#f2f2f2;stroke-linecap:round;stroke-linejoin:round;stroke-width:20px;}</style></defs><path class="cls-3" d="M264.42,66.71l138.54,68.27c4.4,2.17,7.61,6.16,8.78,10.92l35.03,142.13c1.18,4.79,.17,9.85-2.75,13.82l-92.29,125.39c-3.11,4.22-8.03,6.73-13.27,6.76l-158.29,1c-5.21,.03-10.13-2.38-13.3-6.52l-94.31-123.41c-2.99-3.91-4.09-8.94-3-13.74l33.06-146.25c1.11-4.92,4.4-9.07,8.94-11.28L249.83,66.67c4.61-2.24,9.99-2.22,14.59,.04Z"/><path class="cls-1" d="M387.79,279.56c-2.12-.48-4.23-.21-6.07,.62l-18.28-3.35-2.07-2.53-61.38-17.5s-.69-.1-1.03-.18c-3.31-.76-5.38-4.05-4.63-7.36,.35-1.52,2.41-3.62,2.41-3.62l47.98-43.23,.59-3.05,15.19-11.09c2.02-.05,4.04-.72,5.74-2.08,4.14-3.3,4.82-9.34,1.52-13.48-3.3-4.14-9.34-4.82-13.48-1.52-1.7,1.36-2.81,3.17-3.3,5.13l-14.02,12.2-3.27,.04s-53.78,38.17-53.86,38.12c-2.59,1.47-5.92,.9-7.83-1.49-.6-.75-.97-1.61-1.17-2.49-.06-.02-3.71-65.96-3.71-65.96l-2.02-2.37,.81-18.79c1.22-1.61,1.95-3.61,1.95-5.78,0-5.3-4.3-9.59-9.59-9.59s-9.59,4.3-9.59,9.59c0,2.17,.73,4.17,1.95,5.78l.8,18.57-2.01,2.58s-3.85,66.16-4.01,66.21c-.44,2.97-2.99,5.25-6.08,5.25-2.12,0-5.09-2.7-5.09-2.7l-51.23-36.55-3.11,.1-14.19-12.34c-.5-1.96-1.6-3.77-3.3-5.13-4.14-3.3-10.18-2.62-13.48,1.52-3.3,4.14-2.62,10.18,1.52,13.48,1.7,1.36,3.72,2.03,5.74,2.08l15.02,10.96,.77,3.18s48.47,42.93,48.7,43.11c2.66,2.12,3.09,5.99,.97,8.64-1.17,1.46-4.6,2.28-4.6,2.28l-61.28,17.96-1.86,2.49-18.49,3.4c-1.84-.83-3.95-1.1-6.07-.61-5.17,1.18-8.4,6.32-7.22,11.49,1.18,5.17,6.32,8.4,11.49,7.22,2.12-.48,3.9-1.64,5.2-3.19l17.93-4.91,2.96,1.38,61.26-10.18s1.78-.39,2.55-.57c3.31-.76,6.61,1.32,7.36,4.63,.55,2.4-1.47,6.83-1.47,6.83l-23.51,56.86,.79,3.01-8.88,16.58c-1.8,.92-3.32,2.4-4.27,4.36-2.3,4.77-.29,10.51,4.48,12.81,4.77,2.3,10.51,.29,12.81-4.48,.94-1.96,1.15-4.08,.75-6.05l7.34-17.08,2.93-1.46s29.45-53.37,29.84-53.31c.04-.79,.85-1.4,1.21-2.16,1.47-3.06,5.15-4.35,8.21-2.87,2.11,1.01,4.34,5.11,4.34,5.11l30.21,53.01,2.85,1.26,7.43,17.27c-.4,1.98-.19,4.1,.75,6.05,2.3,4.77,8.03,6.78,12.81,4.48s6.78-8.03,4.48-12.81c-.94-1.96-2.47-3.44-4.27-4.36l-8.78-16.39,.69-3.2-23.71-56.89s-.37-1.58-.7-2.27c-1.47-3.06-.19-6.74,2.87-8.21,1.85-.89,6.19-.58,6.19-.58l61.19,10.11,2.76-1.44,18.14,4.96c1.3,1.55,3.08,2.7,5.2,3.19,5.17,1.18,10.31-2.05,11.49-7.22s-2.05-10.31-7.22-11.49Z"/><path class="cls-1" d="M257.14,180.66c44.44,0,80.6,36.16,80.6,80.6s-36.16,80.6-80.6,80.6-80.6-36.16-80.6-80.6,36.16-80.6,80.6-80.6m0-20c-55.56,0-100.6,45.04-100.6,100.6s45.04,100.6,100.6,100.6,100.6-45.04,100.6-100.6-45.04-100.6-100.6-100.6h0Z"/><path class="cls-2" d="M258,275.02l-10.14-5.11c-.32-.16-.56-.46-.64-.82l-2.56-10.63c-.09-.36-.01-.74,.2-1.03l6.75-9.38c.23-.32,.59-.5,.97-.51l11.59-.07c.38,0,.74,.18,.97,.49l6.9,9.23c.22,.29,.3,.67,.22,1.03l-2.42,10.94c-.08,.37-.32,.68-.65,.84l-10.12,5.02c-.34,.17-.73,.17-1.07,0Z"/></svg>